<?xml version="1.0" encoding="utf-8"?>
<!-- Generator: Adobe Illustrator 18.1.1, SVG Export Plug-In . SVG Version: 6.00 Build 0)  -->
<svg version="1.1" id="Laag_1" xmlns="http://www.w3.org/2000/svg" xmlns:xlink="http://www.w3.org/1999/xlink" x="0px" y="0px"
	 viewBox="0 0 40.5 40.5" enable-background="new 0 0 40.5 40.5" xml:space="preserve">
<polygon fill="#2A4B9B" points="37.3,33.9 3.2,33.9 3.2,6.7 33,6.7 33,29.9 7.5,29.9 7.5,10.6 28.7,10.6 28.7,26 11.8,26 11.8,14.5 
	24.4,14.5 24.4,22.1 16.1,22.1 16.1,18.5 20.1,18.5 20.1,20.3 22.4,20.3 22.4,16.3 13.8,16.3 13.8,24.2 26.7,24.2 26.7,12.4 
	9.5,12.4 9.5,28.1 31,28.1 31,8.5 5.2,8.5 5.2,32.1 35.3,32.1 35.3,4.5 0.9,4.5 0.9,36 39.6,36 39.6,4.5 37.3,4.5 "/>
</svg>
