<?xml version="1.0" encoding="utf-8"?>
<!-- Generator: Adobe Illustrator 18.1.1, SVG Export Plug-In . SVG Version: 6.00 Build 0)  -->
<svg version="1.1" id="Layer_1" xmlns="http://www.w3.org/2000/svg" xmlns:xlink="http://www.w3.org/1999/xlink" x="0px" y="0px"
	 viewBox="515.5 0 117 300" enable-background="new 515.5 0 117 300" xml:space="preserve">
<g>
	<path fill="#D33C16" d="M573.5,169.3c-25.7-36.8-94.2-112.7-33.9-155.6c20.1-14,42.3-15.9,63.8-3.4s30.9,31.8,28.9,56.1
		C628.7,101.6,592.5,141,573.5,169.3C567.9,161.6,575.6,165.9,573.5,169.3z M616.9,57.4c0-23-19.3-42.1-42.9-42.1
		c-23.5,0-42.3,18.8-42.9,42.1c0,21.4,16.7,41.5,42.1,42.1C600.2,99.5,616.9,78.3,616.9,57.4C616.9,34.4,616.9,78.3,616.9,57.4z"/>
	<path fill="#D33C16" d="M550.7,81.5c1.3-6.4,2.9-12.4,4.2-18.5c0.5-2.9,2.1-5.1,5.1-6.4c3.4-1.3,6.4-2.9,9.5-4.2
		c-6.1-4.7-7.7-9-5.6-14c1.6-4.2,6.1-7.4,10.6-7.4c4.7,0,9,3.4,10.3,8.2c1.6,4.7-0.5,9-6.1,13c4,1.6,7.4,3.4,11.1,5.6
		c1.3,0.8,2.7,2.1,2.9,3.4c1.6,6.9,2.9,13.7,4.7,20.6C582.2,81.5,566.6,81.5,550.7,81.5z"/>
</g>
</svg>
