<?xml version="1.0" encoding="utf-8"?>
<!-- Generator: Adobe Illustrator 18.1.1, SVG Export Plug-In . SVG Version: 6.00 Build 0)  -->
<svg version="1.1" id="Layer_1" xmlns="http://www.w3.org/2000/svg" xmlns:xlink="http://www.w3.org/1999/xlink" x="0px" y="0px"
	 viewBox="224 0 576 576" enable-background="new 224 0 576 576" xml:space="preserve">
<g>
	<path fill="#D33C16" d="M511,325.1c-49.3-70.6-180.8-216.4-65-298.7c38.6-26.9,81.3-30.5,122.4-6.6c41.1,23.9,59.4,61,55.4,107.7
		C617.1,195,547.6,270.7,511,325.1C500.3,310.3,515,318.5,511,325.1z M594.3,110.2c0-44.2-37.1-80.8-82.3-80.8s-81.3,36.1-82.3,80.8
		c0,41.1,32,79.7,80.8,80.8C562.3,191,594.3,150.3,594.3,110.2C594.3,66,594.3,150.3,594.3,110.2z"/>
	<path fill="#D33C16" d="M467.3,156.4c2.5-12.2,5.6-23.9,8.1-35.6c1-5.6,4.1-9.7,9.7-12.2c6.6-2.5,12.2-5.6,18.3-8.1
		c-11.7-9.1-14.7-17.3-10.7-26.9c3-8.1,11.7-14.2,20.3-14.2c9.1,0,17.3,6.6,19.8,15.7c3,9.1-1,17.3-11.7,24.9
		c7.6,3,14.2,6.6,21.3,10.7c2.5,1.5,5.1,4.1,5.6,6.6c3,13.2,5.6,26.4,9.1,39.6C527.7,156.4,497.8,156.4,467.3,156.4z"/>
</g>
</svg>
