<?xml version="1.0" encoding="utf-8"?>
<!-- Generator: Adobe Illustrator 18.1.1, SVG Export Plug-In . SVG Version: 6.00 Build 0)  -->
<svg version="1.1" id="Layer_1" xmlns="http://www.w3.org/2000/svg" xmlns:xlink="http://www.w3.org/1999/xlink" x="0px" y="0px"
	 viewBox="0 0 113.4 113.4" enable-background="new 0 0 113.4 113.4" xml:space="preserve">
<g>
	<path fill="#D33C16" d="M56.5,64C46.8,50.1,20.9,21.4,43.7,5.2c7.6-5.3,16-6,24.1-1.3s11.7,12,10.9,21.2
		C77.4,38.4,63.7,53.3,56.5,64C54.4,61.1,57.3,62.7,56.5,64z M72.9,21.7c0-8.7-7.3-15.9-16.2-15.9s-16,7.1-16.2,15.9
		c0,8.1,6.3,15.7,15.9,15.9C66.6,37.6,72.9,29.6,72.9,21.7C72.9,13,72.9,29.6,72.9,21.7z"/>
	<path fill="#D33C16" d="M47.9,30.8c0.5-2.4,1.1-4.7,1.6-7c0.2-1.1,0.8-1.9,1.9-2.4c1.3-0.5,2.4-1.1,3.6-1.6
		c-2.3-1.8-2.9-3.4-2.1-5.3c0.6-1.6,2.3-2.8,4-2.8c1.8,0,3.4,1.3,3.9,3.1c0.6,1.8-0.2,3.4-2.3,4.9c1.5,0.6,2.8,1.3,4.2,2.1
		c0.5,0.3,1,0.8,1.1,1.3c0.6,2.6,1.1,5.2,1.8,7.8C59.8,30.8,53.9,30.8,47.9,30.8z"/>
</g>
</svg>
