<?xml version="1.0" encoding="utf-8"?>
<!-- Generator: Adobe Illustrator 18.1.1, SVG Export Plug-In . SVG Version: 6.00 Build 0)  -->
<svg version="1.1" id="Layer_1" xmlns="http://www.w3.org/2000/svg" xmlns:xlink="http://www.w3.org/1999/xlink" x="0px" y="0px"
	 viewBox="0 0 28 70" enable-background="new 0 0 28 70" xml:space="preserve">
<g>
	<path fill="#2257A4" d="M13.9,39.5C7.9,30.9-8.1,13.2,6,3.2c4.7-3.3,9.9-3.7,14.9-0.8c5,2.9,7.2,7.4,6.7,13.1
		C26.8,23.7,18.3,32.9,13.9,39.5C12.6,37.7,14.4,38.7,13.9,39.5z M24,13.4c0-5.4-4.5-9.8-10-9.8c-5.5,0-9.9,4.4-10,9.8
		c0,5,3.9,9.7,9.8,9.8C20.1,23.2,24,18.3,24,13.4C24,8,24,18.3,24,13.4z"/>
	<path fill="#2257A4" d="M8.6,19c0.3-1.5,0.7-2.9,1-4.3c0.1-0.7,0.5-1.2,1.2-1.5c0.8-0.3,1.5-0.7,2.2-1c-1.4-1.1-1.8-2.1-1.3-3.3
		c0.4-1,1.4-1.7,2.5-1.7c1.1,0,2.1,0.8,2.4,1.9c0.4,1.1-0.1,2.1-1.4,3c0.9,0.4,1.7,0.8,2.6,1.3c0.3,0.2,0.6,0.5,0.7,0.8
		c0.4,1.6,0.7,3.2,1.1,4.8C15.9,19,12.3,19,8.6,19z"/>
</g>
</svg>
